<?xml version="1.0" standalone="no"?>
<!DOCTYPE svg PUBLIC "-//W3C//DTD SVG 20010904//EN"
 "http://www.w3.org/TR/2001/REC-SVG-20010904/DTD/svg10.dtd">
<svg version="1.0" xmlns="http://www.w3.org/2000/svg"
 width="1392.000000pt" height="1392.000000pt" viewBox="0 0 1392.000000 1392.000000"
 preserveAspectRatio="xMidYMid meet">
<metadata>
Created by potrace 1.11, written by Peter Selinger 2001-2013
</metadata>
<g transform="translate(0.000000,1392.000000) scale(0.100000,-0.100000)"
fill="#000000" stroke="none">
<path d="M6160 13914 c-46 -16 -70 -33 -112 -77 -27 -28 -48 -53 -48 -58 0 -4
-5 -20 -12 -36 -6 -15 -10 -34 -9 -40 1 -7 -4 -13 -10 -13 -7 0 -9 -3 -6 -7 4
-3 3 -11 -1 -17 -5 -6 -19 -40 -31 -76 -12 -36 -26 -74 -31 -85 -5 -11 -18
-42 -28 -70 -10 -27 -23 -59 -27 -70 -5 -11 -9 -22 -10 -25 -1 -3 -4 -12 -8
-20 -35 -90 -159 -419 -162 -430 -2 -8 -12 -35 -23 -60 -23 -54 -34 -82 -38
-95 -1 -5 -8 -23 -15 -40 -7 -16 -13 -32 -14 -35 -7 -22 -73 -194 -106 -280
-18 -47 -33 -87 -34 -90 0 -3 -3 -9 -6 -15 -6 -9 -31 -81 -34 -95 -1 -3 -8
-21 -16 -40 -9 -19 -30 -75 -48 -125 -18 -49 -40 -103 -49 -120 -9 -16 -15
-30 -13 -30 1 0 0 -7 -3 -15 -14 -39 -158 -417 -165 -435 -22 -50 -81 -212
-81 -223 0 -7 -5 -12 -12 -12 -6 0 -9 -2 -6 -5 3 -3 -16 -61 -42 -130 -26 -68
-45 -126 -42 -129 3 -3 0 -6 -6 -6 -7 0 -12 -6 -12 -12 0 -11 -27 -87 -51
-143 -5 -11 -20 -51 -34 -90 -14 -38 -30 -79 -34 -90 -8 -17 -21 -50 -26 -65
-1 -3 -7 -18 -13 -33 -7 -16 -12 -30 -12 -32 0 -2 -5 -16 -12 -32 -6 -15 -12
-32 -14 -38 -1 -5 -9 -26 -18 -46 -8 -20 -12 -39 -9 -43 4 -3 1 -6 -5 -6 -7 0
-12 -8 -12 -18 0 -10 -3 -22 -7 -26 -5 -4 -8 -11 -9 -14 -1 -7 -10 -32 -24
-67 -4 -11 -16 -40 -25 -65 -9 -25 -22 -56 -28 -70 -5 -14 -11 -32 -13 -40 -2
-8 -10 -30 -18 -50 -17 -38 -39 -92 -40 -100 -1 -3 -15 -39 -31 -80 -16 -41
-30 -77 -31 -80 0 -3 -6 -18 -13 -35 -13 -31 -40 -103 -45 -120 -2 -5 -7 -19
-11 -30 -4 -11 -36 -94 -71 -185 -35 -91 -68 -178 -75 -195 -7 -16 -13 -34
-15 -40 -1 -5 -27 -73 -57 -150 -55 -142 -63 -164 -66 -177 -1 -4 -13 -32 -26
-63 -14 -30 -25 -58 -26 -63 -2 -11 -9 -29 -42 -112 -16 -41 -30 -79 -32 -85
-1 -5 -6 -19 -10 -30 -24 -60 -50 -127 -70 -180 -26 -71 -133 -353 -142 -375
-3 -8 -7 -17 -8 -20 -1 -3 -5 -14 -10 -25 -4 -11 -25 -67 -47 -125 -22 -58
-43 -114 -48 -125 -7 -18 -21 -53 -25 -65 -1 -3 -7 -18 -14 -35 -6 -16 -16
-43 -22 -60 -6 -16 -15 -39 -19 -50 -5 -11 -27 -69 -50 -130 -45 -121 -66
-174 -86 -222 -8 -17 -14 -34 -14 -37 0 -9 -68 -187 -79 -206 -5 -9 -12 -30
-16 -48 -3 -18 -11 -32 -17 -32 -6 0 -9 -3 -5 -6 3 -4 0 -22 -8 -41 -8 -19
-33 -85 -56 -146 -22 -62 -47 -125 -54 -142 -7 -16 -21 -52 -30 -80 -10 -27
-22 -54 -25 -60 -8 -11 -23 -67 -20 -74 1 -2 -3 -7 -9 -11 -6 -3 -13 -16 -15
-27 -3 -11 -17 -51 -32 -89 -15 -38 -27 -75 -27 -81 0 -7 -4 -13 -8 -13 -3 0
-9 -10 -12 -22 -3 -13 -26 -77 -51 -143 -56 -145 -57 -149 -57 -155 -1 -3 -5
-11 -11 -17 -6 -7 -8 -13 -4 -13 4 0 -3 -18 -14 -40 -11 -21 -20 -43 -20 -48
0 -5 -8 -27 -17 -48 -9 -22 -17 -41 -18 -44 0 -3 -10 -30 -22 -60 -12 -30 -54
-140 -93 -245 -39 -104 -75 -199 -80 -210 -5 -11 -19 -45 -30 -75 -12 -30 -29
-71 -38 -90 -20 -41 -22 -161 -4 -206 6 -16 14 -40 16 -54 3 -14 5 -25 7 -25
1 0 3 -9 5 -20 1 -11 9 -44 17 -72 9 -29 12 -53 9 -53 -4 0 -2 -4 3 -8 8 -6
35 -93 50 -162 1 -8 8 -35 15 -60 7 -25 14 -53 15 -62 2 -10 6 -22 9 -26 3 -5
7 -19 10 -33 2 -13 12 -53 21 -89 10 -36 18 -69 20 -75 1 -5 5 -17 8 -25 6
-15 34 -127 42 -166 3 -12 11 -39 19 -62 8 -22 12 -43 9 -46 -3 -3 0 -12 7
-21 7 -9 10 -18 7 -22 -4 -3 -2 -14 4 -25 6 -11 13 -31 15 -45 3 -13 12 -50
20 -81 8 -32 17 -64 19 -72 2 -8 4 -17 5 -20 1 -3 3 -9 4 -15 1 -5 8 -30 15
-55 7 -25 15 -54 17 -66 2 -12 10 -40 18 -63 9 -22 13 -41 9 -41 -3 0 0 -6 6
-13 6 -8 8 -17 5 -20 -3 -3 -2 -12 2 -19 5 -7 9 -17 9 -23 1 -11 14 -62 25
-97 6 -20 43 -158 50 -188 17 -71 32 -125 38 -140 3 -8 6 -22 7 -30 0 -8 9
-42 19 -75 20 -68 20 -67 41 -155 9 -36 19 -72 22 -80 4 -8 8 -22 9 -30 1 -8
10 -42 19 -75 9 -33 18 -67 20 -75 1 -8 5 -22 8 -30 8 -22 38 -139 43 -166 2
-13 9 -35 14 -50 6 -14 8 -30 4 -35 -3 -5 -1 -9 4 -9 6 0 12 -15 15 -32 2 -18
16 -77 31 -131 15 -54 29 -106 31 -115 3 -9 14 -51 25 -92 12 -41 23 -82 25
-90 13 -58 29 -117 33 -130 8 -24 11 -33 27 -100 2 -8 4 -15 5 -15 1 0 3 -9 5
-20 4 -24 54 -214 62 -235 3 -8 7 -19 8 -25 5 -20 55 -212 71 -270 9 -33 18
-67 20 -75 27 -113 43 -145 88 -193 20 -20 36 -34 36 -31 0 4 11 -1 25 -10 14
-9 47 -19 73 -22 51 -5 142 12 142 28 0 5 4 6 10 3 5 -3 17 3 27 15 10 11 23
20 30 20 7 0 13 5 13 10 0 6 6 10 14 10 8 0 16 7 20 15 3 8 12 15 21 15 8 0
15 3 15 8 0 4 16 16 35 26 19 11 35 23 35 28 0 4 5 8 12 8 6 0 18 7 27 15 23
22 194 140 214 148 9 3 17 11 17 17 0 5 5 10 11 10 9 0 74 44 89 60 3 3 29 21
58 39 28 18 52 37 52 41 0 4 13 13 28 19 15 7 40 23 55 37 15 14 27 22 27 20
0 -3 36 20 80 52 43 31 103 74 132 94 29 20 104 73 166 117 62 45 115 81 118
81 3 0 17 11 32 25 15 14 32 25 39 25 6 0 13 3 15 8 5 12 118 93 118 85 0 -4
4 -3 8 3 4 5 75 58 157 116 178 126 209 149 233 166 24 17 232 164 259 182 11
8 59 42 105 75 45 33 96 68 111 78 16 10 34 22 40 28 16 13 324 232 345 244 9
6 19 12 22 15 3 4 43 33 90 65 47 33 87 63 88 67 2 4 8 8 13 8 6 0 44 25 84
55 41 30 78 55 81 54 4 0 10 3 13 8 5 8 193 143 314 225 26 18 53 38 60 43 7
6 35 26 62 45 28 19 52 37 53 42 2 4 9 8 16 8 7 0 31 18 53 41 32 31 52 66 83
147 23 59 48 121 55 137 52 125 65 158 65 171 0 8 5 14 12 14 6 0 8 3 5 7 -4
3 0 17 8 30 9 13 13 23 10 23 -3 0 1 13 9 29 9 16 13 31 10 33 -2 3 2 11 11
18 8 7 15 21 15 31 0 10 5 21 10 24 6 4 8 10 5 14 -2 5 9 36 25 70 17 34 30
64 30 68 0 7 102 264 130 328 10 22 37 90 60 150 23 61 48 124 56 140 7 17 22
55 34 85 11 30 25 64 29 75 14 31 96 236 111 275 7 19 23 58 36 87 13 28 24
57 24 63 0 5 4 18 9 28 15 29 29 63 61 147 17 44 35 89 40 100 5 11 23 56 41
100 17 44 37 94 44 110 7 17 25 62 39 100 15 39 31 79 36 90 5 11 19 45 31 75
11 30 27 69 34 85 32 72 105 262 105 273 0 7 4 12 9 12 5 0 11 12 14 28 3 15
14 45 23 67 10 22 18 42 19 45 1 3 7 17 12 31 56 132 233 582 239 603 3 14 10
26 14 26 4 0 11 16 14 35 4 19 10 35 14 35 4 0 8 8 9 18 1 10 12 43 26 73 13
29 57 137 96 239 40 102 79 199 86 215 8 17 28 66 45 110 17 44 37 94 44 110
7 17 41 102 76 190 34 88 70 178 80 200 19 43 28 67 27 75 0 3 9 23 20 45 12
22 22 43 22 47 1 4 9 25 18 45 8 21 16 43 17 48 2 6 10 28 20 50 10 22 33 81
53 130 19 50 40 101 46 115 5 14 11 27 12 30 1 3 8 21 17 40 19 45 38 102 37
114 0 5 3 12 8 15 5 3 41 89 81 191 41 102 80 197 88 213 8 15 12 27 8 27 -3
0 -1 7 6 15 7 8 9 15 4 15 -5 0 -3 4 3 8 7 4 14 17 16 27 2 11 10 34 17 50 7
17 18 44 26 60 7 17 25 62 39 100 15 39 31 79 36 90 4 11 22 56 39 100 18 44
38 94 45 110 18 41 48 115 85 210 17 44 35 89 40 100 5 11 30 74 56 140 26 66
51 124 56 130 4 5 8 19 8 30 0 12 3 25 8 29 4 4 8 11 8 14 6 29 18 52 27 52 6
0 8 3 4 6 -3 4 0 19 9 35 8 16 15 32 16 36 1 10 21 61 70 180 6 15 12 33 13
38 2 6 12 31 22 55 11 25 28 68 38 95 10 28 21 55 25 60 3 6 19 44 35 85 16
41 32 79 37 84 4 6 8 16 8 24 0 8 12 42 26 76 39 90 40 93 79 191 19 50 40 98
45 107 6 10 10 23 10 30 1 7 9 31 20 53 11 22 19 43 20 46 0 4 8 24 17 45 9
22 17 41 18 44 0 3 4 11 8 18 5 6 5 12 1 12 -4 0 1 9 11 20 10 11 16 20 12 20
-3 0 10 37 30 83 48 113 53 179 20 249 -14 29 -32 60 -39 68 -19 21 -85 65
-138 89 -25 12 -52 25 -60 30 -26 14 -54 28 -242 122 -257 127 -311 154 -317
155 -4 0 -42 18 -86 39 -44 22 -83 38 -87 37 -5 -1 -8 3 -8 8 0 6 -9 10 -20
10 -11 0 -20 4 -20 10 0 5 -3 9 -7 8 -8 -3 -260 106 -375 161 -31 15 -55 24
-52 20 2 -4 -20 5 -49 18 -28 14 -61 29 -72 33 -30 12 -96 40 -129 56 -16 8
-33 14 -38 14 -4 0 -27 9 -51 19 -48 22 -185 80 -192 81 -3 1 -19 7 -37 14
-49 20 -232 90 -238 92 -3 0 -12 4 -20 7 -59 25 -370 139 -390 143 -14 3 -29
9 -34 15 -6 5 -20 9 -31 9 -12 0 -25 3 -29 7 -6 7 -66 30 -96 38 -8 2 -49 15
-90 30 -41 15 -84 29 -95 32 -11 2 -27 7 -35 11 -8 3 -17 6 -20 7 -3 0 -84 26
-180 58 -210 68 -306 98 -323 101 -6 2 -20 6 -29 10 -9 4 -23 9 -32 10 -8 1
-19 5 -22 9 -4 4 -18 7 -30 7 -13 0 -25 4 -29 9 -3 6 -13 9 -23 9 -9 -1 -53
11 -97 25 -44 15 -89 28 -100 30 -20 4 -98 25 -125 35 -20 7 -210 58 -290 77
-36 9 -72 19 -80 22 -8 3 -21 7 -29 9 -55 11 -120 27 -141 34 -14 5 -38 11
-55 14 -33 6 -80 17 -171 40 -34 8 -73 17 -88 20 -14 3 -34 7 -44 10 -9 3 -28
7 -42 10 -14 3 -36 8 -50 11 -38 9 -143 15 -160 9z"/>
</g>
</svg>
