<svg id="pictorio" xmlns="http://www.w3.org/2000/svg" viewBox="0 0 239.88 89.93"><defs><style>.cls-1,.cls-2{fill:none;stroke-miterlimit:10;stroke-width:7px;}.cls-1,.cls-2,.cls-4,.cls-5,.cls-6,.cls-7,.cls-8{stroke:#000;}.cls-1{stroke-linecap:square;}.cls-3{fill:#fff;}.cls-4{fill:#dbb726;}.cls-4,.cls-5,.cls-6,.cls-7,.cls-8{stroke-linecap:round;stroke-linejoin:round;stroke-width:3px;}.cls-5{fill:#edd777;}.cls-6{fill:#f4ecc7;}.cls-7{fill:#e8d3b3;}.cls-8{fill:#231e20;}</style></defs><title>pictorio_v1</title><path class="cls-1" d="M5,95a110.83,110.83,0,0,0,32.4,7.43,111.05,111.05,0,0,0,27-1.31l35.81-4.75c20.07-2.66,36.38.48,46.14,1.75a239.89,239.89,0,0,1,27.39,5.17c7.9,2,14.65,4.13,20,6" transform="translate(-0.43 -23.77)"/><path class="cls-2" d="M48.2,57.79,55,58v6.75l-6.77-.25Zm.45,10.57,6.87,0L58.05,97.1,51.18,97Z" transform="translate(-0.43 -23.77)"/><path class="cls-3" d="M48.2,57.79,55,58v6.75l-6.77-.25Zm.45,10.57,6.87,0L58.05,97.1,51.18,97Z" transform="translate(-0.43 -23.77)"/><path class="cls-2" d="M22.79,36.57q3.08-6,8.48-6.55a9.76,9.76,0,0,1,8.9,3.52q3.48,4.08,4.24,11.23A41.4,41.4,0,0,1,41.9,64.58q-3.61,9.19-8.75,9.73a19.87,19.87,0,0,1-6.42-.25q1.5,12.61,3,22l-10.84,0q-2.19-16.44-4.14-35T12.62,28.93h9.64Zm5.82,28.95q2.57-.27,4.28-5.55a24.82,24.82,0,0,0,1.18-10.36,27,27,0,0,0-1.74-7.79c-.81-1.8-1.61-2.66-2.41-2.57q-2,.21-3.27,2.75a37.42,37.42,0,0,0-2.44,7.21q.41,4.77,1.45,14.67C26.71,65.07,27.69,65.61,28.61,65.52Z" transform="translate(-0.43 -23.77)"/><path class="cls-3" d="M22.79,36.57q3.08-6,8.48-6.55a9.76,9.76,0,0,1,8.9,3.52q3.48,4.08,4.24,11.23A41.4,41.4,0,0,1,41.9,64.58q-3.61,9.19-8.75,9.73a19.87,19.87,0,0,1-6.42-.25q1.5,12.61,3,22l-10.84,0q-2.19-16.44-4.14-35T12.62,28.93h9.64Zm5.82,28.95q2.57-.27,4.28-5.55a24.82,24.82,0,0,0,1.18-10.36,27,27,0,0,0-1.74-7.79c-.81-1.8-1.61-2.66-2.41-2.57q-2,.21-3.27,2.75a37.42,37.42,0,0,0-2.44,7.21q.41,4.77,1.45,14.67C26.71,65.07,27.69,65.61,28.61,65.52Z" transform="translate(-0.43 -23.77)"/><path class="cls-2" d="M73.42,77.27a16.54,16.54,0,0,0,0-2.16,7.61,7.61,0,0,0-.67-2.67c-.41-.9-.89-1.34-1.45-1.31-1.12.05-1.86,1.38-2.24,4a37.49,37.49,0,0,0-.4,7.14c.18,3.64,1,5.42,2.48,5.35Q73,87.51,76,81.06l4.59,3a20.29,20.29,0,0,1-3.71,7.15A7.76,7.76,0,0,1,71.11,94a8.55,8.55,0,0,1-6.27-2.4c-1.9-1.71-3-4.4-3.13-8.08a37.18,37.18,0,0,1,1.35-11.78,12.86,12.86,0,0,1,3-5.37,7.6,7.6,0,0,1,5.33-2.3q3.3-.16,5.65,3.09a13.47,13.47,0,0,1,2.55,7.32,7.72,7.72,0,0,1-.4,3Z" transform="translate(-0.43 -23.77)"/><path class="cls-3" d="M73.42,77.27a16.54,16.54,0,0,0,0-2.16,7.61,7.61,0,0,0-.67-2.67c-.41-.9-.89-1.34-1.45-1.31-1.12.05-1.86,1.38-2.24,4a37.49,37.49,0,0,0-.4,7.14c.18,3.64,1,5.42,2.48,5.35Q73,87.51,76,81.06l4.59,3a20.29,20.29,0,0,1-3.71,7.15A7.76,7.76,0,0,1,71.11,94a8.55,8.55,0,0,1-6.27-2.4c-1.9-1.71-3-4.4-3.13-8.08a37.18,37.18,0,0,1,1.35-11.78,12.86,12.86,0,0,1,3-5.37,7.6,7.6,0,0,1,5.33-2.3q3.3-.16,5.65,3.09a13.47,13.47,0,0,1,2.55,7.32,7.72,7.72,0,0,1-.4,3Z" transform="translate(-0.43 -23.77)"/><path class="cls-2" d="M98.77,64.78l.67,5.66c-1.91.23-3.37.42-4.4.58q.52,6,2.17,20l-7.11.18q-1.21-10.44-2-18.92c-.59.07-1.71.31-3.36.7l-1.47-4.78c.93-.31,2.39-.74,4.38-1.3q-.4-4.42-1-12.93l7.17-.18c.23,4,.49,7.8.81,11.51C95.54,65.18,97,65,98.77,64.78Z" transform="translate(-0.43 -23.77)"/><path class="cls-3" d="M98.77,64.78l.67,5.66c-1.91.23-3.37.42-4.4.58q.52,6,2.17,20l-7.11.18q-1.21-10.44-2-18.92c-.59.07-1.71.31-3.36.7l-1.47-4.78c.93-.31,2.39-.74,4.38-1.3q-.4-4.42-1-12.93l7.17-.18c.23,4,.49,7.8.81,11.51C95.54,65.18,97,65,98.77,64.78Z" transform="translate(-0.43 -23.77)"/><path class="cls-2" d="M103.46,77.83a27.47,27.47,0,0,1,1.75-11,11.31,11.31,0,0,1,3.17-4.57,7.75,7.75,0,0,1,4.8-2,8.58,8.58,0,0,1,4.71,1A8.13,8.13,0,0,1,121,64.42a19.67,19.67,0,0,1,2.41,8.66,24.47,24.47,0,0,1-2.11,11.72q-2.41,5.2-7.21,5.43Q104.1,90.73,103.46,77.83Zm7,.2q.33,6.78,3.33,6.63c.88,0,1.55-1.35,2-3.92a31,31,0,0,0,.54-7.32c-.24-5.11-1.21-7.63-2.89-7.55-1.07,0-1.88,1.46-2.4,4.23A33.62,33.62,0,0,0,110.5,78Z" transform="translate(-0.43 -23.77)"/><path class="cls-3" d="M103.46,77.83a27.47,27.47,0,0,1,1.75-11,11.31,11.31,0,0,1,3.17-4.57,7.75,7.75,0,0,1,4.8-2,8.58,8.58,0,0,1,4.71,1A8.13,8.13,0,0,1,121,64.42a19.67,19.67,0,0,1,2.41,8.66,24.47,24.47,0,0,1-2.11,11.72q-2.41,5.2-7.21,5.43Q104.1,90.73,103.46,77.83Zm7,.2q.33,6.78,3.33,6.63c.88,0,1.55-1.35,2-3.92a31,31,0,0,0,.54-7.32c-.24-5.11-1.21-7.63-2.89-7.55-1.07,0-1.88,1.46-2.4,4.23A33.62,33.62,0,0,0,110.5,78Z" transform="translate(-0.43 -23.77)"/><path class="cls-2" d="M139.32,66.94q-2.52,0-3.76,6.37.12,4.2.14,8c0,2.56-.07,5.44-.22,8.64l-7-.58c.1-5.88.16-9.12.15-9.72a99.52,99.52,0,0,0-1.12-17l4.5.46a21.31,21.31,0,0,0,1,3.06q2.92-6.3,5.92-6.31a5.58,5.58,0,0,1,4.33,2.14l-1.55,5.53A4.14,4.14,0,0,0,139.32,66.94Z" transform="translate(-0.43 -23.77)"/><path class="cls-3" d="M139.32,66.94q-2.52,0-3.76,6.37.12,4.2.14,8c0,2.56-.07,5.44-.22,8.64l-7-.58c.1-5.88.16-9.12.15-9.72a99.52,99.52,0,0,0-1.12-17l4.5.46a21.31,21.31,0,0,0,1,3.06q2.92-6.3,5.92-6.31a5.58,5.58,0,0,1,4.33,2.14l-1.55,5.53A4.14,4.14,0,0,0,139.32,66.94Z" transform="translate(-0.43 -23.77)"/><path class="cls-2" d="M157.89,82.9A27.44,27.44,0,0,1,161,72.19a11.35,11.35,0,0,1,3.72-4.13,7.79,7.79,0,0,1,5-1.32,8.53,8.53,0,0,1,4.54,1.59A8.09,8.09,0,0,1,177,71.82a19.74,19.74,0,0,1,1.29,8.89,24.52,24.52,0,0,1-3.57,11.36q-3.06,4.84-7.84,4.47Q156.89,95.76,157.89,82.9Zm7,1.09q-.53,6.75,2.46,7,1.32.1,2.51-3.62a31.58,31.58,0,0,0,1.47-7.2c.4-5.11-.24-7.72-1.92-7.86-1.07-.08-2.05,1.22-2.92,3.9A33.87,33.87,0,0,0,164.85,84Z" transform="translate(-0.43 -23.77)"/><path class="cls-3" d="M157.89,82.9A27.44,27.44,0,0,1,161,72.19a11.35,11.35,0,0,1,3.72-4.13,7.79,7.79,0,0,1,5-1.32,8.53,8.53,0,0,1,4.54,1.59A8.09,8.09,0,0,1,177,71.82a19.74,19.74,0,0,1,1.29,8.89,24.52,24.52,0,0,1-3.57,11.36q-3.06,4.84-7.84,4.47Q156.89,95.76,157.89,82.9Zm7,1.09q-.53,6.75,2.46,7,1.32.1,2.51-3.62a31.58,31.58,0,0,0,1.47-7.2c.4-5.11-.24-7.72-1.92-7.86-1.07-.08-2.05,1.22-2.92,3.9A33.87,33.87,0,0,0,164.85,84Z" transform="translate(-0.43 -23.77)"/><path class="cls-2" d="M150.23,53.46l6.56,1.64-1.45,6.59L148.78,60ZM148.4,63.87l6.7,1.54L151.4,94l-6.69-1.53Z" transform="translate(-0.43 -23.77)"/><path class="cls-3" d="M150.23,53.46l6.56,1.64-1.45,6.59L148.78,60ZM148.4,63.87l6.7,1.54L151.4,94l-6.69-1.53Z" transform="translate(-0.43 -23.77)"/><g id="pencil"><path class="cls-4" d="M216.48,27.51,194.83,84.4c-2.06-2.88-5.23-3.06-8.8-2.14l21.76-57C210.64,25.88,213.55,26.62,216.48,27.51Z" transform="translate(-0.43 -23.77)"/><path class="cls-5" d="M231.21,32.9,208.93,89.51a16.91,16.91,0,0,0-14.1-5.11l21.65-56.89A127.13,127.13,0,0,1,231.21,32.9Z" transform="translate(-0.43 -23.77)"/><path class="cls-6" d="M238.81,36.53l-22.7,56.65c-2.35-3.45-3.52-3.63-7.18-3.67L231.21,32.9C233.8,34,236.35,35.25,238.81,36.53Z" transform="translate(-0.43 -23.77)"/><path class="cls-7" d="M216.11,93.18l-15.92,11.25L191,101.1l-5-18.84c3.57-.92,6.74-.74,8.8,2.14a16.91,16.91,0,0,1,14.1,5.11C212.59,89.55,213.76,89.73,216.11,93.18Z" transform="translate(-0.43 -23.77)"/><path class="cls-8" d="M200.19,104.43l-7,4.91L191,101.1A19.09,19.09,0,0,1,200.19,104.43Z" transform="translate(-0.43 -23.77)"/></g></svg>